<svg width="50" height="50" viewBox="0 0 50 50" fill="none" xmlns="http://www.w3.org/2000/svg">
<rect width="50" height="50" rx="5" fill="#F9AC54"/>
<path d="M31.498 13C30.118 13 29 14.12 29 15.5C29 16.88 30.118 18 31.498 18C32.881 18 34 16.88 34 15.5C34 14.12 32.881 13 31.498 13ZM22 18C21.7348 18 21.4805 18.1054 21.293 18.293L18.293 21.293C18.1054 21.4805 18 21.7348 18 22C18 22.5523 18.4477 23 19 23C19.2652 23 19.5195 22.8946 19.707 22.707C19.7103 22.7038 19.7136 22.7005 19.7168 22.6973L22.2129 20.2012L24.5332 20.5879L22.3926 24.1543L22.3945 24.1621C22.1475 24.5501 22 25.007 22 25.5C22 26.165 22.2645 26.7649 22.6875 27.2129V27.2227L26.4258 31.0859L27 36C27 36.5523 27.4477 37 28 37C28.5523 37 29 36.5523 29 36V30C28.9999 29.7945 28.9365 29.594 28.8184 29.4258L26.7871 26.5234L29.6406 21.793L29.6348 21.7832C29.8618 21.4062 30 20.971 30 20.5C30 19.12 28.882 18.001 27.5 18H27.498L22 18ZM31.293 21.875L30 24L30.2168 24.1094L31.4922 24.8613C31.646 24.9521 31.8214 24.9999 32 25H36C36.5523 25 37 24.5523 37 24C37 23.4477 36.5523 23 36 23H32.6543L31.293 21.875ZM20.8711 27.6094L19.3691 29.4023L15 30C14.4477 30 14 30.4477 14 31C14 31.5523 14.4477 32 15 32H20C20.2722 31.9995 20.5325 31.8881 20.7207 31.6914L20.7891 31.6191L22.8984 29.6992L20.8711 27.6094Z" fill="white" fill-opacity="0.87843"/>
</svg>
