<svg width="50" height="50" viewBox="0 0 50 50" fill="none" xmlns="http://www.w3.org/2000/svg">
<rect width="50" height="50" rx="5" fill="#F9AC54"/>
<path d="M32.3909 10.64C29.4744 10.64 26.9135 11.924 24.985 14.354C23.0572 11.924 20.5066 10.64 17.6091 10.64C12.3105 10.64 8 15.0353 8 20.4378C8 21.8696 8.21216 23.1992 8.57324 24.4466H13.6998L14.8721 22.067C14.9931 21.822 15.2508 21.6763 15.516 21.686C15.7853 21.7005 16.022 21.8758 16.1172 22.1326L17.3296 25.4151L19.2343 16.0239C19.2989 15.7022 19.5777 15.4723 19.9 15.4723C19.9027 15.4723 19.9054 15.4723 19.9082 15.4723C20.2339 15.4764 20.5113 15.7139 20.5691 16.0391L22.856 28.8053L25.3856 22.1271C25.4862 21.8613 25.7385 21.6853 26.02 21.6853C26.0207 21.6853 26.022 21.6853 26.0227 21.6853C26.3056 21.6867 26.5572 21.8648 26.6572 22.1326L28.2137 26.3464L29.184 24.7704C29.3078 24.5695 29.5254 24.4466 29.76 24.4466H33.3484C33.5836 24.0358 34.0175 23.7563 34.52 23.7563C35.2714 23.7563 35.88 24.3741 35.88 25.1369C35.88 25.8997 35.2714 26.5176 34.52 26.5176C34.0182 26.5176 33.5843 26.238 33.3484 25.8272H30.1367L28.636 28.2641C28.4993 28.4864 28.2456 28.6058 27.992 28.5851C27.7343 28.5589 27.514 28.3863 27.4228 28.1405L26.0118 24.3196L23.2544 31.5977C23.1531 31.8663 22.8995 32.0402 22.62 32.0402C22.5996 32.0402 22.5778 32.0395 22.5561 32.0375C22.2528 32.0085 22.0053 31.7779 21.9509 31.4735L19.8585 19.7903L18.1857 28.037C18.1245 28.3387 17.8743 28.5623 17.573 28.5865C17.2602 28.6107 16.9896 28.4284 16.8828 28.1405L15.3909 24.0994L14.7279 25.4448C14.613 25.6795 14.3777 25.8272 14.12 25.8272H9.04312C11.2932 31.4224 16.7536 35.1557 21.0036 38.0571C22.38 38.996 24.5417 40.8343 24.5634 40.853C24.6804 40.9531 24.8307 41 24.983 41C25.1591 41 25.338 40.9372 25.4746 40.8219C26.3811 40.0515 27.6228 38.9953 28.9964 38.0578C34.484 34.3107 42 29.1802 42 20.4378C42 15.0353 37.6895 10.64 32.3909 10.64Z" fill="white" fill-opacity="0.87843"/>
</svg>
