<svg width="50" height="50" viewBox="0 0 50 50" fill="none" xmlns="http://www.w3.org/2000/svg">
<rect width="50" height="50" rx="5" fill="#F9AC54"/>
<path d="M17.0667 13C16.4411 13 15.9333 13.5973 15.9333 14.3333V35.6667C15.9333 36.4027 16.4411 37 17.0667 37H20.4667V27.6667H29.5333V37H32.9333C33.5589 37 34.0667 36.4027 34.0667 35.6667V14.3333C34.0667 13.5973 33.5589 13 32.9333 13H29.5333V22.3333H20.4667V13H17.0667ZM11.4 17C10.7744 17 10.2667 17.5973 10.2667 18.3333V22.3333H8V27.6667H10.2667V31.6667C10.2667 32.4027 10.7744 33 11.4 33H13.6667V17H11.4ZM36.3333 17V33H38.6C39.2256 33 39.7333 32.4027 39.7333 31.6667V27.6667H42V22.3333H39.7333V18.3333C39.7333 17.5973 39.2256 17 38.6 17H36.3333Z" fill="white" fill-opacity="0.87843"/>
</svg>
