<svg width="50" height="50" viewBox="0 0 50 50" fill="none" xmlns="http://www.w3.org/2000/svg">
<rect width="50" height="50" rx="5" fill="#F9AC54"/>
<path d="M25.0001 10C22.689 10 20.8001 12.0532 20.8001 14.5652C20.8001 15.2642 20.9491 15.9278 21.2102 16.5217H15.2922C15.0126 16.5217 14.7704 16.7313 14.7074 17.0274L10.0152 39.2013C9.97441 39.395 10.0167 39.5983 10.1301 39.7542C10.2435 39.91 10.417 40 10.6 40H39.4002C39.5832 40 39.7555 39.9094 39.8689 39.7542C39.9824 39.5989 40.0258 39.395 39.985 39.2013L35.2927 17.0274C35.2297 16.7313 34.9876 16.5217 34.708 16.5217H28.79C29.0511 15.9278 29.2001 15.2642 29.2001 14.5652C29.2001 12.0532 27.3112 10 25.0001 10ZM25.0001 11.3043C26.661 11.3043 28.0001 12.7599 28.0001 14.5652C28.0001 15.3088 27.7647 15.9768 27.3802 16.5217H22.62C22.2355 15.9768 22.0001 15.3088 22.0001 14.5652C22.0001 12.7599 23.3392 11.3043 25.0001 11.3043ZM19.3434 23.2919H20.6747V28.3806H20.7661L22.9329 25.7694H24.4786L22.1395 28.5143L24.6392 32.1739H23.0302L21.1469 29.4276L20.6747 29.9422V32.1739H19.3434V23.2919ZM27.4692 25.6547C28.2685 25.6547 28.9658 26.0856 29.288 26.7795H29.3794V25.7592H30.6615V32.1612C30.6615 33.6364 29.5777 34.5635 27.8665 34.5635C26.3587 34.5635 25.3718 33.8415 25.2638 32.7446H26.6009C26.6873 33.1822 27.1586 33.4617 27.8876 33.4617C28.7996 33.4617 29.3314 32.9951 29.3314 32.1969V30.9893H29.24C28.9022 31.6721 28.2636 32.0453 27.4482 32.0453C25.9673 32.0453 25.0446 30.7967 25.0446 28.8787C25.0446 26.9247 25.9722 25.6547 27.4692 25.6547ZM27.8653 26.8839C26.9371 26.8839 26.4122 27.6591 26.4122 28.8786C26.4122 30.0969 26.9371 30.867 27.8654 30.867C28.7936 30.867 29.3525 30.0969 29.3525 28.8786C29.3525 27.6597 28.7882 26.8839 27.8653 26.8839Z" fill="white" fill-opacity="0.87843"/>
</svg>
